<svg xmlns="http://www.w3.org/2000/svg" viewBox="0 0 18 18">
  <path fill-rule="evenodd" d="M6.955 1.628l2.582-.006c1.916.001 2.227.012 3.1.052.877.04 1.354.187 1.67.31.421.163.72.358 1.036.673.27.27.452.529.6.862l.073.173c.113.29.246.715.298 1.46l.03.627c.012.29.02.553.025.917l.01 2.842c-.002 1.915-.013 2.226-.053 3.099-.037.804-.163 1.272-.279 1.588l-.031.083c-.163.42-.358.72-.673 1.035-.315.315-.615.51-1.035.673-.29.113-.715.246-1.46.298l-1.21.05c-.344.007-.761.011-1.428.013l-3.255-.005a37.01 37.01 0 01-1.592-.046c-.877-.04-1.354-.187-1.67-.31a2.788 2.788 0 01-1.036-.673 2.788 2.788 0 01-.673-1.035c-.113-.29-.246-.715-.298-1.46l-.05-1.21a71.292 71.292 0 01-.013-1.428l.005-3.255c.006-.692.02-1.022.046-1.592.04-.877.187-1.354.31-1.67.163-.421.358-.72.673-1.036.315-.315.615-.51 1.035-.673.29-.113.715-.246 1.46-.298l.627-.03c.355-.015.668-.023 1.176-.028zM6.97.006h4.06c.747.007 1.09.021 1.68.048.959.044 1.613.196 2.185.419.592.23 1.094.537 1.594 1.038.5.5.808 1.002 1.038 1.594.198.509.34 1.082.4 1.876l.035.68c.026.62.036 1.093.038 2.574l-.005 2.658c-.006.844-.02 1.192-.05 1.818-.043.958-.195 1.612-.418 2.184a4.412 4.412 0 01-1.038 1.594c-.5.5-1.002.809-1.594 1.039-.509.197-1.082.34-1.876.4l-.795.039c-.53.021-1.003.03-2.193.032l-2.924-.004a39.115 39.115 0 01-1.818-.05c-.958-.043-1.612-.195-2.184-.417a4.412 4.412 0 01-1.594-1.039c-.5-.5-.809-1.002-1.039-1.594-.197-.509-.34-1.082-.4-1.876l-.042-.876C.009 11.575 0 11.027 0 9.527L.006 6.97c.007-.747.021-1.09.048-1.68.044-.959.196-1.613.418-2.185A4.412 4.412 0 011.511 1.51c.5-.5 1.002-.808 1.594-1.038.509-.198 1.082-.34 1.876-.4L5.857.03C6.177.018 6.49.01 6.97.006zm2.048 4.387a4.625 4.625 0 100 9.25 4.625 4.625 0 000-9.25zm0 1.623a3.002 3.002 0 110 6.004 3.002 3.002 0 010-6.004zm4.768-2.909a1.071 1.071 0 100 2.143 1.071 1.071 0 000-2.143z"></path>
</svg>
